<svg xmlns="http://www.w3.org/2000/svg" width="1200" height="680" viewBox="0 0 1200 680">
<style>text{font-family:Arial,sans-serif;fill:#40546a}.title{font-size:26px;font-weight:700}.label{font-size:13px}.grid{stroke:#dfe8ea;stroke-width:1}.axis{stroke:#9aabb3;stroke-width:1.5}</style>
<rect width="100%" height="100%" fill="#fbfdfd"/><text x="92" y="48" class="title">Daily refractivity profile</text>
<line x1="92" y1="92.0" x2="1122" y2="92.0" class="grid"/><line x1="92" y1="209.5" x2="1122" y2="209.5" class="grid"/><line x1="92" y1="327.0" x2="1122" y2="327.0" class="grid"/><line x1="92" y1="444.5" x2="1122" y2="444.5" class="grid"/><line x1="92" y1="562.0" x2="1122" y2="562.0" class="grid"/><line x1="92" y1="92" x2="92" y2="562" class="axis"/><line x1="92" y1="562" x2="1122" y2="562" class="axis"/>
<polyline points="92.0,363.5 99.4,483.5 106.8,130.5 114.2,119.5 121.6,108.0 129.1,345.9 136.5,446.8 143.9,144.7 151.3,120.0 158.7,128.7 166.1,465.8 173.5,377.1 180.9,477.4 188.3,371.5 195.7,399.8 203.2,349.6 210.6,562.0 218.0,357.7 225.4,456.3 232.8,448.0 240.2,401.7 247.6,150.1 255.0,114.2 262.4,103.3 269.8,391.0 277.3,350.4 284.7,274.9 292.1,385.5 299.5,391.0 306.9,351.1 314.3,341.1 321.7,393.0 329.1,530.1 336.5,376.0 343.9,353.4 351.4,348.5 358.8,351.9 366.2,363.1 373.6,334.7 381.0,406.1 388.4,343.6 395.8,423.2 403.2,362.2 410.6,377.7 418.0,362.4 425.5,119.1 432.9,97.4 440.3,351.7 447.7,411.3 455.1,381.7 462.5,419.2 469.9,396.6 477.3,433.4 484.7,413.2 492.1,376.2 499.6,442.4 507.0,343.1 514.4,332.1 521.8,122.4 529.2,114.2 536.6,93.0 544.0,306.2 551.4,356.9 558.8,137.8 566.2,113.8 573.7,92.0 581.1,362.0 588.5,383.4 595.9,130.4 603.3,114.8 610.7,98.9 618.1,128.7 625.5,120.0 632.9,124.6 640.3,113.2 647.8,108.9 655.2,107.7 662.6,110.6 670.0,112.0 677.4,111.5 684.8,111.0 692.2,124.9 699.6,365.3 707.0,378.1 714.4,133.7 721.9,116.2 729.3,100.8 736.7,117.6 744.1,117.2 751.5,122.0 758.9,130.3 766.3,121.5 773.7,109.5 781.1,125.0 788.5,122.0 796.0,122.0 803.4,120.1 810.8,117.6 818.2,124.3 825.6,121.5 833.0,117.0 840.4,119.9 847.8,125.2 855.2,130.6 862.6,115.4 870.1,110.0 877.5,393.9 884.9,446.2 892.3,131.0 899.7,107.7 907.1,115.1 914.5,110.4 921.9,102.1 929.3,111.3 936.7,113.7 944.2,115.5 951.6,114.9 959.0,116.0 966.4,114.0 973.8,115.2 981.2,106.3 988.6,99.2 996.0,106.1 1003.4,113.9 1010.8,108.5 1018.3,121.3 1025.7,115.6 1033.1,114.8 1040.5,362.5 1047.9,472.0 1055.3,138.1 1062.7,107.8 1070.1,385.2 1077.5,378.7 1084.9,140.7 1092.4,112.6 1099.8,272.2 1107.2,345.8 1114.6,127.3 1122.0,111.7" fill="none" stroke="#354f70" stroke-width="4" stroke-linejoin="round" stroke-linecap="round"/><circle cx="92.0" cy="363.5" r="3.5" fill="#354f70"/><circle cx="114.2" cy="119.5" r="3.5" fill="#354f70"/><circle cx="136.5" cy="446.8" r="3.5" fill="#354f70"/><circle cx="158.7" cy="128.7" r="3.5" fill="#354f70"/><circle cx="180.9" cy="477.4" r="3.5" fill="#354f70"/><circle cx="203.2" cy="349.6" r="3.5" fill="#354f70"/><circle cx="225.4" cy="456.3" r="3.5" fill="#354f70"/><circle cx="247.6" cy="150.1" r="3.5" fill="#354f70"/><circle cx="269.8" cy="391.0" r="3.5" fill="#354f70"/><circle cx="292.1" cy="385.5" r="3.5" fill="#354f70"/><circle cx="314.3" cy="341.1" r="3.5" fill="#354f70"/><circle cx="336.5" cy="376.0" r="3.5" fill="#354f70"/><circle cx="358.8" cy="351.9" r="3.5" fill="#354f70"/><circle cx="381.0" cy="406.1" r="3.5" fill="#354f70"/><circle cx="403.2" cy="362.2" r="3.5" fill="#354f70"/><circle cx="425.5" cy="119.1" r="3.5" fill="#354f70"/><circle cx="447.7" cy="411.3" r="3.5" fill="#354f70"/><circle cx="469.9" cy="396.6" r="3.5" fill="#354f70"/><circle cx="492.1" cy="376.2" r="3.5" fill="#354f70"/><circle cx="514.4" cy="332.1" r="3.5" fill="#354f70"/><circle cx="536.6" cy="93.0" r="3.5" fill="#354f70"/><circle cx="558.8" cy="137.8" r="3.5" fill="#354f70"/><circle cx="581.1" cy="362.0" r="3.5" fill="#354f70"/><circle cx="603.3" cy="114.8" r="3.5" fill="#354f70"/><circle cx="625.5" cy="120.0" r="3.5" fill="#354f70"/><circle cx="647.8" cy="108.9" r="3.5" fill="#354f70"/><circle cx="670.0" cy="112.0" r="3.5" fill="#354f70"/><circle cx="692.2" cy="124.9" r="3.5" fill="#354f70"/><circle cx="714.4" cy="133.7" r="3.5" fill="#354f70"/><circle cx="736.7" cy="117.6" r="3.5" fill="#354f70"/><circle cx="758.9" cy="130.3" r="3.5" fill="#354f70"/><circle cx="781.1" cy="125.0" r="3.5" fill="#354f70"/><circle cx="803.4" cy="120.1" r="3.5" fill="#354f70"/><circle cx="825.6" cy="121.5" r="3.5" fill="#354f70"/><circle cx="847.8" cy="125.2" r="3.5" fill="#354f70"/><circle cx="870.1" cy="110.0" r="3.5" fill="#354f70"/><circle cx="892.3" cy="131.0" r="3.5" fill="#354f70"/><circle cx="914.5" cy="110.4" r="3.5" fill="#354f70"/><circle cx="936.7" cy="113.7" r="3.5" fill="#354f70"/><circle cx="959.0" cy="116.0" r="3.5" fill="#354f70"/><circle cx="981.2" cy="106.3" r="3.5" fill="#354f70"/><circle cx="1003.4" cy="113.9" r="3.5" fill="#354f70"/><circle cx="1025.7" cy="115.6" r="3.5" fill="#354f70"/><circle cx="1047.9" cy="472.0" r="3.5" fill="#354f70"/><circle cx="1070.1" cy="385.2" r="3.5" fill="#354f70"/><circle cx="1092.4" cy="112.6" r="3.5" fill="#354f70"/><circle cx="1114.6" cy="127.3" r="3.5" fill="#354f70"/><text x="92.0" y="590" text-anchor="middle" class="label">2026-01-03</text><text x="218.0" y="590" text-anchor="middle" class="label">2026-02-27</text><text x="343.9" y="590" text-anchor="middle" class="label">2026-03-23</text><text x="469.9" y="590" text-anchor="middle" class="label">2026-04-17</text><text x="595.9" y="590" text-anchor="middle" class="label">2026-07-08</text><text x="721.9" y="590" text-anchor="middle" class="label">2026-08-09</text><text x="847.8" y="590" text-anchor="middle" class="label">2026-08-28</text><text x="973.8" y="590" text-anchor="middle" class="label">2026-09-22</text><text x="1099.8" y="590" text-anchor="middle" class="label">2026-12-03</text><text x="1122.0" y="590" text-anchor="middle" class="label">2026-12-09</text></svg>