<svg xmlns="http://www.w3.org/2000/svg" width="1200" height="680" viewBox="0 0 1200 680">
<style>text{font-family:Arial,sans-serif;fill:#40546a}.title{font-size:26px;font-weight:700}.label{font-size:13px}.value{font-size:12px;fill:#526b7a}.grid{stroke:#dfe8ea;stroke-width:1}.axis{stroke:#9aabb3;stroke-width:1.5}</style>
<rect width="100%" height="100%" fill="#fbfdfd"/><text x="92" y="48" class="title">Flagged statistical outliers</text>
<line x1="92" y1="562.0" x2="1122" y2="562.0" class="grid"/><line x1="92" y1="444.5" x2="1122" y2="444.5" class="grid"/><line x1="92" y1="327.0" x2="1122" y2="327.0" class="grid"/><line x1="92" y1="209.5" x2="1122" y2="209.5" class="grid"/><line x1="92" y1="92.0" x2="1122" y2="92.0" class="grid"/><line x1="92" y1="92" x2="92" y2="562" class="axis"/><line x1="92" y1="562" x2="1122" y2="562" class="axis"/>
<rect x="103.8" y="492.2" width="50.0" height="69.8" rx="4" fill="#d76e61"/><text x="128.8" y="482.2" text-anchor="middle" class="value">10350.00</text><text x="128.8" y="590.0" text-anchor="middle" class="label">Signal Quality</text><rect x="177.3" y="492.2" width="50.0" height="69.8" rx="4" fill="#d76e61"/><text x="202.4" y="482.2" text-anchor="middle" class="value">10350.00</text><text x="202.4" y="590.0" text-anchor="middle" class="label">Signal Strength (d</text><rect x="250.9" y="545.5" width="50.0" height="16.5" rx="4" fill="#d76e61"/><text x="275.9" y="535.5" text-anchor="middle" class="value">2452.00</text><text x="275.9" y="590.0" text-anchor="middle" class="label">Sat. View</text><rect x="324.5" y="562.0" width="50.0" height="0.0" rx="4" fill="#d76e61"/><text x="349.5" y="552.0" text-anchor="middle" class="value">2.00</text><text x="349.5" y="590.0" text-anchor="middle" class="label">Sat. Used</text><rect x="398.1" y="450.4" width="50.0" height="111.6" rx="4" fill="#d76e61"/><text x="423.1" y="440.4" text-anchor="middle" class="value">16544.00</text><text x="423.1" y="590.0" text-anchor="middle" class="label">Lat. (deg.)</text><rect x="471.6" y="457.7" width="50.0" height="104.3" rx="4" fill="#d76e61"/><text x="496.6" y="447.7" text-anchor="middle" class="value">15467.00</text><text x="496.6" y="590.0" text-anchor="middle" class="label">Long. (deg.)</text><rect x="545.2" y="461.5" width="50.0" height="100.5" rx="4" fill="#d76e61"/><text x="570.2" y="451.5" text-anchor="middle" class="value">14892.00</text><text x="570.2" y="590.0" text-anchor="middle" class="label">Altitude (m)</text><rect x="618.8" y="393.7" width="50.0" height="168.3" rx="4" fill="#d76e61"/><text x="643.8" y="383.7" text-anchor="middle" class="value">24945.00</text><text x="643.8" y="590.0" text-anchor="middle" class="label">Accuracy</text><rect x="692.3" y="549.8" width="50.0" height="12.2" rx="4" fill="#d76e61"/><text x="717.4" y="539.8" text-anchor="middle" class="value">1802.00</text><text x="717.4" y="590.0" text-anchor="middle" class="label">Temp.</text><rect x="765.9" y="446.1" width="50.0" height="115.9" rx="4" fill="#d76e61"/><text x="790.9" y="436.1" text-anchor="middle" class="value">17185.00</text><text x="790.9" y="590.0" text-anchor="middle" class="label">RH (%)</text><rect x="839.5" y="551.0" width="50.0" height="11.0" rx="4" fill="#d76e61"/><text x="864.5" y="541.0" text-anchor="middle" class="value">1633.00</text><text x="864.5" y="590.0" text-anchor="middle" class="label">Pressure (mbar)</text><rect x="913.1" y="554.3" width="50.0" height="7.7" rx="4" fill="#d76e61"/><text x="938.1" y="544.3" text-anchor="middle" class="value">1139.00</text><text x="938.1" y="590.0" text-anchor="middle" class="label">Heat Index</text><rect x="986.6" y="477.1" width="50.0" height="84.9" rx="4" fill="#d76e61"/><text x="1011.6" y="467.1" text-anchor="middle" class="value">12579.00</text><text x="1011.6" y="590.0" text-anchor="middle" class="label">Refractivity</text><rect x="1060.2" y="92.0" width="50.0" height="470.0" rx="4" fill="#d76e61"/><text x="1085.2" y="82.0" text-anchor="middle" class="value">69676.00</text><text x="1085.2" y="590.0" text-anchor="middle" class="label">Battery level (%)</text></svg>