<svg xmlns="http://www.w3.org/2000/svg" width="1200" height="680" viewBox="0 0 1200 680">
<style>text{font-family:Arial,sans-serif;fill:#40546a}.title{font-size:26px;font-weight:700}.label{font-size:13px}.value{font-size:12px;fill:#526b7a}.grid{stroke:#dfe8ea;stroke-width:1}.axis{stroke:#9aabb3;stroke-width:1.5}</style>
<rect width="100%" height="100%" fill="#fbfdfd"/><text x="92" y="48" class="title">Temperature distribution</text>
<line x1="92" y1="562.0" x2="1122" y2="562.0" class="grid"/><line x1="92" y1="444.5" x2="1122" y2="444.5" class="grid"/><line x1="92" y1="327.0" x2="1122" y2="327.0" class="grid"/><line x1="92" y1="209.5" x2="1122" y2="209.5" class="grid"/><line x1="92" y1="92.0" x2="1122" y2="92.0" class="grid"/><line x1="92" y1="92" x2="92" y2="562" class="axis"/><line x1="92" y1="562" x2="1122" y2="562" class="axis"/>
<rect x="105.7" y="498.4" width="58.4" height="63.6" rx="4" fill="#3aa590"/><text x="134.9" y="488.4" text-anchor="middle" class="value">12291.00</text><text x="134.9" y="590.0" text-anchor="middle" class="label">20.0</text><rect x="191.6" y="225.0" width="58.4" height="337.0" rx="4" fill="#3aa590"/><text x="220.7" y="215.0" text-anchor="middle" class="value">65101.00</text><text x="220.7" y="590.0" text-anchor="middle" class="label">22.2</text><rect x="277.4" y="92.0" width="58.4" height="470.0" rx="4" fill="#3aa590"/><text x="306.6" y="82.0" text-anchor="middle" class="value">90793.00</text><text x="306.6" y="590.0" text-anchor="middle" class="label">24.3</text><rect x="363.2" y="184.3" width="58.4" height="377.7" rx="4" fill="#3aa590"/><text x="392.4" y="174.3" text-anchor="middle" class="value">72971.00</text><text x="392.4" y="590.0" text-anchor="middle" class="label">26.5</text><rect x="449.1" y="380.6" width="58.4" height="181.4" rx="4" fill="#3aa590"/><text x="478.2" y="370.6" text-anchor="middle" class="value">35034.00</text><text x="478.2" y="590.0" text-anchor="middle" class="label">28.7</text><rect x="534.9" y="523.4" width="58.4" height="38.6" rx="4" fill="#3aa590"/><text x="564.1" y="513.4" text-anchor="middle" class="value">7462.00</text><text x="564.1" y="590.0" text-anchor="middle" class="label">30.8</text><rect x="620.7" y="547.6" width="58.4" height="14.4" rx="4" fill="#3aa590"/><text x="649.9" y="537.6" text-anchor="middle" class="value">2778.00</text><text x="649.9" y="590.0" text-anchor="middle" class="label">33.0</text><rect x="706.6" y="561.2" width="58.4" height="0.8" rx="4" fill="#3aa590"/><text x="735.7" y="551.2" text-anchor="middle" class="value">152.00</text><text x="735.7" y="590.0" text-anchor="middle" class="label">35.2</text><rect x="792.4" y="561.7" width="58.4" height="0.3" rx="4" fill="#3aa590"/><text x="821.6" y="551.7" text-anchor="middle" class="value">64.00</text><text x="821.6" y="590.0" text-anchor="middle" class="label">37.3</text><rect x="878.2" y="561.9" width="58.4" height="0.1" rx="4" fill="#3aa590"/><text x="907.4" y="551.9" text-anchor="middle" class="value">17.00</text><text x="907.4" y="590.0" text-anchor="middle" class="label">39.5</text><rect x="964.1" y="562.0" width="58.4" height="0.0" rx="4" fill="#3aa590"/><text x="993.2" y="552.0" text-anchor="middle" class="value">8.00</text><text x="993.2" y="590.0" text-anchor="middle" class="label">41.7</text><rect x="1049.9" y="561.9" width="58.4" height="0.1" rx="4" fill="#3aa590"/><text x="1079.1" y="551.9" text-anchor="middle" class="value">25.00</text><text x="1079.1" y="590.0" text-anchor="middle" class="label">43.8</text></svg>