<svg xmlns="http://www.w3.org/2000/svg" width="1200" height="680" viewBox="0 0 1200 680">
<style>text{font-family:Arial,sans-serif;fill:#40546a}.title{font-size:26px;font-weight:700}.label{font-size:13px}.value{font-size:12px;fill:#526b7a}.grid{stroke:#dfe8ea;stroke-width:1}.axis{stroke:#9aabb3;stroke-width:1.5}</style>
<rect width="100%" height="100%" fill="#fbfdfd"/><text x="92" y="48" class="title">Training and holdout row counts</text>
<line x1="92" y1="562.0" x2="1122" y2="562.0" class="grid"/><line x1="92" y1="444.5" x2="1122" y2="444.5" class="grid"/><line x1="92" y1="327.0" x2="1122" y2="327.0" class="grid"/><line x1="92" y1="209.5" x2="1122" y2="209.5" class="grid"/><line x1="92" y1="92.0" x2="1122" y2="92.0" class="grid"/><line x1="92" y1="92" x2="92" y2="562" class="axis"/><line x1="92" y1="562" x2="1122" y2="562" class="axis"/>
<rect x="146.9" y="92.0" width="233.5" height="470.0" rx="4" fill="#3aa590"/><text x="263.7" y="82.0" text-anchor="middle" class="value">202965.00</text><text x="263.7" y="590.0" text-anchor="middle" class="label">Training</text><rect x="490.3" y="390.6" width="233.5" height="171.4" rx="4" fill="#3aa590"/><text x="607.0" y="380.6" text-anchor="middle" class="value">74021.00</text><text x="607.0" y="590.0" text-anchor="middle" class="label">Holdout</text><rect x="833.6" y="427.2" width="233.5" height="134.8" rx="4" fill="#3aa590"/><text x="950.3" y="417.2" text-anchor="middle" class="value">58217.00</text><text x="950.3" y="590.0" text-anchor="middle" class="label">Validation</text></svg>