<svg xmlns="http://www.w3.org/2000/svg" width="1200" height="680" viewBox="0 0 1200 680">
<style>text{font-family:Arial,sans-serif;fill:#40546a}.title{font-size:26px;font-weight:700}.label{font-size:13px}.value{font-size:12px;fill:#526b7a}.grid{stroke:#dfe8ea;stroke-width:1}.axis{stroke:#9aabb3;stroke-width:1.5}</style>
<rect width="100%" height="100%" fill="#fbfdfd"/><text x="92" y="48" class="title">Chronological validation metrics</text>
<line x1="92" y1="562.0" x2="1122" y2="562.0" class="grid"/><line x1="92" y1="444.5" x2="1122" y2="444.5" class="grid"/><line x1="92" y1="327.0" x2="1122" y2="327.0" class="grid"/><line x1="92" y1="209.5" x2="1122" y2="209.5" class="grid"/><line x1="92" y1="92.0" x2="1122" y2="92.0" class="grid"/><line x1="92" y1="92" x2="92" y2="562" class="axis"/><line x1="92" y1="562" x2="1122" y2="562" class="axis"/>
<rect x="133.2" y="174.4" width="175.1" height="387.6" rx="4" fill="#354f70"/><text x="220.8" y="164.4" text-anchor="middle" class="value">26.14</text><text x="220.8" y="590.0" text-anchor="middle" class="label">MAE</text><rect x="390.7" y="92.0" width="175.1" height="470.0" rx="4" fill="#354f70"/><text x="478.2" y="82.0" text-anchor="middle" class="value">31.69</text><text x="478.2" y="590.0" text-anchor="middle" class="label">RMSE</text><rect x="648.2" y="210.1" width="175.1" height="351.9" rx="4" fill="#354f70"/><text x="735.8" y="200.1" text-anchor="middle" class="value">23.73</text><text x="735.8" y="590.0" text-anchor="middle" class="label">Abs bias</text><rect x="905.7" y="456.4" width="175.1" height="105.6" rx="4" fill="#354f70"/><text x="993.2" y="446.4" text-anchor="middle" class="value">7.12</text><text x="993.2" y="590.0" text-anchor="middle" class="label">MAPE</text></svg>